<svg width="32" height="32" viewBox="0 0 32 32" fill="none" xmlns="http://www.w3.org/2000/svg">
<rect width="32" height="32" rx="16" fill="#262626"/>
<path d="M10.1756 26V7.688H15.9436C16.9516 7.688 17.8849 7.78133 18.7436 7.968C19.6209 8.15467 20.3769 8.472 21.0116 8.92C21.6462 9.368 22.1409 9.956 22.4956 10.684C22.8502 11.3933 23.0276 12.28 23.0276 13.344C23.0276 14.352 22.8502 15.2293 22.4956 15.976C22.1409 16.7227 21.6462 17.348 21.0116 17.852C20.3956 18.3373 19.6582 18.7013 18.7996 18.944C17.9596 19.168 17.0449 19.28 16.0556 19.28H13.4236V26H10.1756ZM13.4236 16.676H15.8036C18.4916 16.676 19.8356 15.5653 19.8356 13.344C19.8356 12.1867 19.4809 11.3933 18.7716 10.964C18.0809 10.516 17.0542 10.292 15.6916 10.292H13.4236V16.676Z" fill="white"/>
</svg>
